<svg width="21" height="23" viewBox="0 0 21 23" fill="none" xmlns="http://www.w3.org/2000/svg">
<rect x="1.09458" y="0.907993" width="14" height="14" rx="1" transform="matrix(0.996195 -0.0871558 0.0983833 0.995149 0.646767 6.28877)" stroke="#5A5A5A" stroke-width="2"/>
<path fill-rule="evenodd" clip-rule="evenodd" d="M6.08282 2.47002L17.996 3.91063L17.1302 9.26157L17.8521 16.6285C17.955 16.4349 18.0282 16.2225 18.0648 15.9966L19.9816 4.15073C20.158 3.06034 19.4121 2.06891 18.3155 1.93631L6.40228 0.495704C5.3057 0.3631 4.27372 1.13954 4.09728 2.22992L3.45169 6.21971L5.50515 6.04006L6.08282 2.47002Z" fill="#5A5A5A"/>
<path d="M15.0187 17.9545L4.98552 18.7127L7.709 14.9722L9.71066 16.0683L11.5958 13.0993L14.7816 15.5349L15.0187 17.9545Z" fill="#5A5A5A"/>
<circle cx="7.42014" cy="10.9072" r="1.5" fill="#5A5A5A"/>
</svg>
